<svg xmlns="http://www.w3.org/2000/svg" xmlns:xlink="http://www.w3.org/1999/xlink" version="1.1" class="marks" width="478" height="282" viewBox="0 0 478 282"><rect width="478" height="282" fill="white"/><g fill="none" stroke-miterlimit="10" transform="translate(5,37)"><g class="mark-group role-frame root" role="graphics-object" aria-roledescription="group mark container"><g transform="translate(0,0)"><path class="background" aria-hidden="true" d="M0,0h400v240h-400Z"/><g><g class="mark-arc role-mark layer_0_marks" role="graphics-object" aria-roledescription="arc mark container"><path aria-label="sum of Sales: 200; Brand: BrandA" role="graphics-symbol" aria-roledescription="arc mark" transform="translate(200,120)" d="M118.17693036146497,-20.83778132003164A120,120,0,0,0,7.34788079488412e-15,-120L4.898587196589413e-15,-80A80,80,0,0,1,78.78462024097664,-13.891854213354428Z" fill="#4c78a8"/><path aria-label="sum of Sales: 300; Brand: BrandB" role="graphics-symbol" aria-roledescription="arc mark" transform="translate(200,120)" d="M-41.04241719908025,112.76311449430901A120,120,0,0,0,118.17693036146497,-20.83778132003164L78.78462024097664,-13.891854213354428A80,80,0,0,1,-27.361611466053496,75.17540966287268Z" fill="#f58518"/><path aria-label="sum of Sales: 400; Brand: BrandC" role="graphics-symbol" aria-roledescription="arc mark" transform="translate(200,120)" d="M-2.2043642384652355e-14,-120A120,120,0,0,0,-41.04241719908025,112.76311449430901L-27.361611466053496,75.17540966287268A80,80,0,0,1,-1.4695761589768237e-14,-80Z" fill="#e45756"/></g><g class="mark-group role-legend" role="graphics-symbol" aria-roledescription="legend" aria-label="Symbol legend titled 'Brand' for fill color with 3 values: BrandA, BrandB, BrandC"><g transform="translate(418,0)"><path class="background" aria-hidden="true" d="M0,0h50v53h-50Z" pointer-events="none"/><g><g class="mark-group role-legend-entry"><g transform="translate(0,16)"><path class="background" aria-hidden="true" d="M0,0h0v0h0Z" pointer-events="none"/><g><g class="mark-group role-scope" role="graphics-object" aria-roledescription="group mark container"><g transform="translate(0,0)"><path class="background" aria-hidden="true" d="M0,0h49.90625v11h-49.90625Z" pointer-events="none" opacity="1"/><g><g class="mark-symbol role-legend-symbol" pointer-events="none"><path transform="translate(6,6)" d="M5,0A5,5,0,1,1,-5,0A5,5,0,1,1,5,0" fill="#4c78a8" stroke-width="1.5" opacity="1"/></g><g class="mark-text role-legend-label" pointer-events="none"><text text-anchor="start" transform="translate(16,9)" font-family="sans-serif" font-size="10px" fill="#000" opacity="1">BrandA</text></g></g><path class="foreground" aria-hidden="true" d="" pointer-events="none" display="none"/></g><g transform="translate(0,13)"><path class="background" aria-hidden="true" d="M0,0h49.90625v11h-49.90625Z" pointer-events="none" opacity="1"/><g><g class="mark-symbol role-legend-symbol" pointer-events="none"><path transform="translate(6,6)" d="M5,0A5,5,0,1,1,-5,0A5,5,0,1,1,5,0" fill="#f58518" stroke-width="1.5" opacity="1"/></g><g class="mark-text role-legend-label" pointer-events="none"><text text-anchor="start" transform="translate(16,9)" font-family="sans-serif" font-size="10px" fill="#000" opacity="1">BrandB</text></g></g><path class="foreground" aria-hidden="true" d="" pointer-events="none" display="none"/></g><g transform="translate(0,26)"><path class="background" aria-hidden="true" d="M0,0h49.90625v11h-49.90625Z" pointer-events="none" opacity="1"/><g><g class="mark-symbol role-legend-symbol" pointer-events="none"><path transform="translate(6,6)" d="M5,0A5,5,0,1,1,-5,0A5,5,0,1,1,5,0" fill="#e45756" stroke-width="1.5" opacity="1"/></g><g class="mark-text role-legend-label" pointer-events="none"><text text-anchor="start" transform="translate(16,9)" font-family="sans-serif" font-size="10px" fill="#000" opacity="1">BrandC</text></g></g><path class="foreground" aria-hidden="true" d="" pointer-events="none" display="none"/></g></g></g><path class="foreground" aria-hidden="true" d="" pointer-events="none" display="none"/></g></g><g class="mark-text role-legend-title" pointer-events="none"><text text-anchor="start" transform="translate(0,9)" font-family="sans-serif" font-size="11px" font-weight="bold" fill="#000" opacity="1">Brand</text></g></g><path class="foreground" aria-hidden="true" d="" pointer-events="none" display="none"/></g></g><g class="mark-group role-title"><g transform="translate(0,-32)"><path class="background" aria-hidden="true" d="M0,0h0v0h0Z" pointer-events="none"/><g><g class="mark-text role-title-text" role="graphics-symbol" aria-roledescription="title" aria-label="Title text 'Sum of Sales by Brand'" pointer-events="none"><text text-anchor="start" transform="translate(0,11)" font-family="helvetica" font-size="14px" font-weight="bold" fill="#171717" opacity="1">Sum of Sales by Brand</text></g><g class="mark-text role-title-subtitle" role="graphics-symbol" aria-roledescription="subtitle" aria-label="Subtitle text ' '" pointer-events="none"><text text-anchor="start" transform="translate(0,26)" font-family="sans-serif" font-size="12px" fill="#000" opacity="1"/></g></g><path class="foreground" aria-hidden="true" d="" pointer-events="none" display="none"/></g></g></g><path class="foreground" aria-hidden="true" d="" display="none"/></g></g></g></svg>